<svg xmlns="http://www.w3.org/2000/svg" xmlns:xlink="http://www.w3.org/1999/xlink" width="600" zoomAndPan="magnify" viewBox="0 0 450 449.999984" height="600" preserveAspectRatio="xMidYMid meet" version="1.0"><defs><clipPath id="31c80d8110"><path d="M 76.828125 46.730469 L 176 46.730469 L 176 174 L 76.828125 174 Z M 76.828125 46.730469 " clip-rule="nonzero"/></clipPath><clipPath id="95e39aca95"><path d="M 126.140625 46.730469 C 98.90625 46.730469 76.828125 75.09375 76.828125 110.078125 C 76.828125 145.066406 98.90625 173.425781 126.140625 173.425781 C 153.375 173.425781 175.453125 145.066406 175.453125 110.078125 C 175.453125 75.09375 153.375 46.730469 126.140625 46.730469 " clip-rule="nonzero"/></clipPath><clipPath id="2d4e967272"><path d="M 117.929688 56.644531 L 155 56.644531 L 155 103.65625 L 117.929688 103.65625 Z M 117.929688 56.644531 " clip-rule="nonzero"/></clipPath><clipPath id="661aa13c4d"><path d="M 136.140625 56.644531 C 126.082031 56.644531 117.929688 67.117188 117.929688 80.039062 C 117.929688 92.957031 126.082031 103.429688 136.140625 103.429688 C 146.199219 103.429688 154.351562 92.957031 154.351562 80.039062 C 154.351562 67.117188 146.199219 56.644531 136.140625 56.644531 " clip-rule="nonzero"/></clipPath><clipPath id="f179d0fb0d"><path d="M 274.546875 46.730469 L 373 46.730469 L 373 174 L 274.546875 174 Z M 274.546875 46.730469 " clip-rule="nonzero"/></clipPath><clipPath id="9949202a46"><path d="M 323.859375 46.730469 C 296.625 46.730469 274.546875 75.09375 274.546875 110.078125 C 274.546875 145.066406 296.625 173.425781 323.859375 173.425781 C 351.09375 173.425781 373.171875 145.066406 373.171875 110.078125 C 373.171875 75.09375 351.09375 46.730469 323.859375 46.730469 " clip-rule="nonzero"/></clipPath><clipPath id="6bc0295a5c"><path d="M 314.914062 56.644531 L 352 56.644531 L 352 103.65625 L 314.914062 103.65625 Z M 314.914062 56.644531 " clip-rule="nonzero"/></clipPath><clipPath id="e2d69f83f0"><path d="M 333.125 56.644531 C 323.066406 56.644531 314.914062 67.117188 314.914062 80.039062 C 314.914062 92.957031 323.066406 103.429688 333.125 103.429688 C 343.179688 103.429688 351.332031 92.957031 351.332031 80.039062 C 351.332031 67.117188 343.179688 56.644531 333.125 56.644531 " clip-rule="nonzero"/></clipPath><clipPath id="e25010de5f"><path d="M 12 254.898438 L 437.855469 254.898438 L 437.855469 403.398438 L 12 403.398438 Z M 12 254.898438 " clip-rule="nonzero"/></clipPath></defs><g clip-path="url(#31c80d8110)"><g clip-path="url(#95e39aca95)"><path fill="#000000" d="M 76.828125 46.730469 L 175.105469 46.730469 L 175.105469 174.042969 L 76.828125 174.042969 Z M 76.828125 46.730469 " fill-opacity="1" fill-rule="nonzero"/></g></g><g clip-path="url(#2d4e967272)"><g clip-path="url(#661aa13c4d)"><path fill="#ffffff" d="M 117.929688 56.644531 L 154.222656 56.644531 L 154.222656 103.65625 L 117.929688 103.65625 Z M 117.929688 56.644531 " fill-opacity="1" fill-rule="nonzero"/></g></g><g clip-path="url(#f179d0fb0d)"><g clip-path="url(#9949202a46)"><path fill="#000000" d="M 274.546875 46.730469 L 372.828125 46.730469 L 372.828125 174.042969 L 274.546875 174.042969 Z M 274.546875 46.730469 " fill-opacity="1" fill-rule="nonzero"/></g></g><g clip-path="url(#6bc0295a5c)"><g clip-path="url(#e2d69f83f0)"><path fill="#ffffff" d="M 314.914062 56.644531 L 351.207031 56.644531 L 351.207031 103.65625 L 314.914062 103.65625 Z M 314.914062 56.644531 " fill-opacity="1" fill-rule="nonzero"/></g></g><g clip-path="url(#e25010de5f)"><path fill="#000000" d="M 428.292969 302.527344 C 428.109375 301.667969 427.933594 300.824219 427.699219 299.996094 L 426.972656 297.554688 C 426.582031 295.945312 425.855469 294.433594 425.363281 292.9375 C 424.0625 290 422.6875 287.257812 421.027344 284.710938 C 419.300781 282.210938 417.519531 279.8125 415.40625 277.6875 C 411.226562 273.429688 406.316406 269.890625 400.488281 267.296875 L 399.398438 266.773438 L 398.269531 266.347656 C 397.503906 266.070312 396.738281 265.75 395.957031 265.464844 C 394.371094 265.035156 392.742188 264.394531 391.03125 264.015625 C 389.324219 263.582031 387.5625 263.246094 385.710938 262.9375 C 383.863281 262.640625 381.949219 262.421875 379.894531 262.179688 C 382.863281 259.320312 386.636719 257.394531 390.671875 256.183594 C 392.695312 255.570312 394.785156 255.3125 396.929688 255.027344 C 398 254.902344 399.070312 254.949219 400.152344 254.929688 L 401.789062 254.925781 C 402.335938 254.949219 402.867188 255.027344 403.414062 255.082031 C 412.132812 255.882812 420.625 260.152344 426.84375 266.589844 C 429.992188 269.792969 432.457031 273.605469 434.359375 277.628906 C 436.191406 281.699219 437.238281 286.074219 437.605469 290.417969 C 437.648438 291.511719 437.621094 292.609375 437.617188 293.6875 C 437.605469 294.230469 437.621094 294.761719 437.574219 295.300781 C 437.527344 295.839844 437.441406 296.375 437.375 296.910156 C 437.214844 297.976562 437.113281 299.03125 436.886719 300.066406 C 436.648438 301.105469 436.386719 302.128906 436.058594 303.132812 C 434.722656 307.136719 432.691406 310.84375 429.75 313.734375 C 429.445312 309.628906 429.042969 305.976562 428.292969 302.527344 Z M 21.460938 302.527344 C 21.644531 301.667969 21.820312 300.824219 22.050781 299.996094 L 22.78125 297.554688 C 23.171875 295.945312 23.894531 294.433594 24.390625 292.9375 C 25.695312 290 27.066406 287.257812 28.726562 284.710938 C 30.453125 282.210938 32.234375 279.8125 34.34375 277.6875 C 38.53125 273.429688 43.441406 269.890625 49.261719 267.296875 L 50.355469 266.773438 L 51.484375 266.347656 C 52.246094 266.070312 53.011719 265.75 53.800781 265.464844 C 55.382812 265.035156 57.015625 264.394531 58.722656 264.015625 C 60.425781 263.582031 62.191406 263.246094 64.042969 262.9375 C 65.890625 262.640625 67.808594 262.421875 69.859375 262.179688 C 66.886719 259.320312 63.117188 257.394531 59.082031 256.183594 C 57.058594 255.570312 54.964844 255.3125 52.820312 255.027344 C 51.753906 254.902344 50.683594 254.949219 49.597656 254.929688 L 47.960938 254.925781 C 47.417969 254.949219 46.886719 255.027344 46.339844 255.082031 C 37.617188 255.882812 29.125 260.152344 22.90625 266.589844 C 19.761719 269.792969 17.292969 273.605469 15.394531 277.628906 C 13.558594 281.699219 12.515625 286.074219 12.152344 290.417969 C 12.105469 291.511719 12.132812 292.609375 12.136719 293.6875 C 12.152344 294.230469 12.132812 294.761719 12.175781 295.300781 C 12.222656 295.839844 12.308594 296.375 12.378906 296.910156 C 12.542969 297.976562 12.636719 299.03125 12.867188 300.066406 C 13.105469 301.105469 13.367188 302.128906 13.695312 303.132812 C 15.027344 307.136719 17.0625 310.84375 20.003906 313.734375 C 20.308594 309.628906 20.707031 305.976562 21.460938 302.527344 Z M 406.230469 274.175781 C 404.945312 275.964844 403.640625 277.75 402.304688 279.515625 L 400.304688 282.179688 L 399.304688 283.515625 L 398.242188 284.792969 L 393.917969 289.867188 L 391.726562 292.394531 L 389.417969 294.800781 C 386.34375 298.027344 383.234375 301.253906 379.90625 304.226562 L 374.941406 308.761719 C 373.238281 310.207031 371.492188 311.617188 369.769531 313.050781 C 365.269531 316.722656 346.183594 337.703125 345.011719 339.105469 C 343.882812 340.550781 342.710938 341.957031 341.554688 343.386719 C 340.398438 344.816406 339.238281 346.25 337.984375 347.59375 C 328.21875 358.621094 316.921875 368.457031 304.4375 376.730469 C 302.871094 377.753906 301.324219 378.8125 299.726562 379.800781 L 294.859375 382.632812 C 291.636719 384.578125 288.230469 386.1875 284.84375 387.867188 C 278.078125 391.222656 270.964844 393.875 263.75 396.265625 C 261.96875 396.933594 260.101562 397.335938 258.269531 397.847656 L 252.746094 399.308594 C 249.035156 400.09375 245.308594 400.851562 241.570312 401.53125 C 241.535156 401.542969 241.5 401.546875 241.464844 401.550781 L 235.828125 402.253906 C 233.925781 402.457031 232.035156 402.796875 230.121094 402.855469 L 224.386719 403.1875 L 221.515625 403.351562 C 220.5625 403.394531 219.601562 403.359375 218.640625 403.351562 L 212.894531 403.242188 C 211.9375 403.207031 210.976562 403.226562 210.023438 403.152344 L 207.15625 402.910156 C 203.339844 402.558594 199.507812 402.351562 195.738281 401.625 L 190.074219 400.679688 C 188.1875 400.371094 186.34375 399.84375 184.476562 399.429688 L 178.902344 398.101562 C 177.054688 397.617188 175.253906 396.964844 173.4375 396.398438 L 167.996094 394.636719 C 166.21875 393.96875 164.460938 393.242188 162.691406 392.542969 C 160.925781 391.84375 159.164062 391.140625 157.417969 390.402344 C 155.699219 389.589844 154.007812 388.738281 152.308594 387.90625 L 147.230469 385.390625 C 145.570312 384.496094 143.945312 383.535156 142.324219 382.574219 L 137.476562 379.6875 C 135.859375 378.726562 134.359375 377.597656 132.796875 376.5625 C 129.707031 374.441406 126.601562 372.359375 123.742188 369.957031 L 119.386719 366.464844 L 117.226562 364.707031 C 116.523438 364.101562 115.859375 363.453125 115.171875 362.824219 C 112.472656 360.28125 109.699219 357.835938 107.097656 355.222656 L 99.574219 347.144531 L 98.683594 346.164062 C 98.660156 346.140625 98.640625 346.117188 98.621094 346.097656 L 97.78125 345.066406 L 96.042969 342.929688 C 94.890625 341.503906 72.152344 316.074219 67.78125 312.464844 L 65.179688 310.34375 L 63.882812 309.285156 L 62.636719 308.160156 L 57.691406 303.636719 L 52.796875 299.097656 C 51.1875 297.558594 49.691406 295.894531 48.144531 294.300781 L 43.566406 289.460938 L 41.304688 287.03125 L 39.160156 284.484375 C 39.121094 284.4375 39.082031 284.386719 39.042969 284.34375 C 37.78125 282.785156 39.75 280.707031 41.367188 281.882812 C 41.40625 281.910156 41.441406 281.9375 41.472656 281.960938 L 44.097656 283.925781 L 46.820312 285.769531 L 52.210938 289.464844 C 54.011719 290.691406 55.769531 291.957031 57.582031 293.148438 L 63.09375 296.601562 L 68.558594 300.070312 L 69.882812 300.914062 C 69.90625 300.929688 69.933594 300.945312 69.960938 300.964844 L 71.328125 301.734375 L 74.144531 303.324219 C 89 311.988281 104.3125 319.570312 120.160156 325.488281 C 151.777344 337.492188 185.140625 343.582031 218.570312 343.449219 C 251.988281 343.304688 285.457031 337.25 317.199219 325.484375 C 348.996094 313.773438 378.941406 296.570312 406.230469 274.175781 " fill-opacity="1" fill-rule="nonzero"/></g></svg>