<svg xmlns="http://www.w3.org/2000/svg" xmlns:xlink="http://www.w3.org/1999/xlink" width="500" zoomAndPan="magnify" viewBox="0 0 375 374.999991" height="500" preserveAspectRatio="xMidYMid meet" version="1.0"><defs><clipPath id="a1ec3af146"><path d="M 70.890625 44.621094 L 149 44.621094 L 149 144.816406 L 70.890625 144.816406 Z M 70.890625 44.621094 " clip-rule="nonzero"/></clipPath><clipPath id="16e0449964"><path d="M 109.699219 44.621094 C 88.265625 44.621094 70.890625 66.941406 70.890625 94.476562 C 70.890625 122.011719 88.265625 144.332031 109.699219 144.332031 C 131.128906 144.332031 148.503906 122.011719 148.503906 94.476562 C 148.503906 66.941406 131.128906 44.621094 109.699219 44.621094 " clip-rule="nonzero"/></clipPath><clipPath id="a19f0ec0c2"><path d="M 103.238281 52.425781 L 132 52.425781 L 132 89.421875 L 103.238281 89.421875 Z M 103.238281 52.425781 " clip-rule="nonzero"/></clipPath><clipPath id="500a5b42c2"><path d="M 117.570312 52.425781 C 109.65625 52.425781 103.238281 60.667969 103.238281 70.835938 C 103.238281 81.003906 109.65625 89.246094 117.570312 89.246094 C 125.484375 89.246094 131.898438 81.003906 131.898438 70.835938 C 131.898438 60.667969 125.484375 52.425781 117.570312 52.425781 " clip-rule="nonzero"/></clipPath><clipPath id="6a57995154"><path d="M 226.496094 44.621094 L 304 44.621094 L 304 144.816406 L 226.496094 144.816406 Z M 226.496094 44.621094 " clip-rule="nonzero"/></clipPath><clipPath id="ccd30fa236"><path d="M 265.300781 44.621094 C 243.871094 44.621094 226.496094 66.941406 226.496094 94.476562 C 226.496094 122.011719 243.871094 144.332031 265.300781 144.332031 C 286.734375 144.332031 304.109375 122.011719 304.109375 94.476562 C 304.109375 66.941406 286.734375 44.621094 265.300781 44.621094 " clip-rule="nonzero"/></clipPath><clipPath id="eedacc7666"><path d="M 258.261719 52.425781 L 287 52.425781 L 287 89.421875 L 258.261719 89.421875 Z M 258.261719 52.425781 " clip-rule="nonzero"/></clipPath><clipPath id="fa2412ab00"><path d="M 272.59375 52.425781 C 264.675781 52.425781 258.261719 60.667969 258.261719 70.835938 C 258.261719 81.003906 264.675781 89.246094 272.59375 89.246094 C 280.507812 89.246094 286.921875 81.003906 286.921875 70.835938 C 286.921875 60.667969 280.507812 52.425781 272.59375 52.425781 " clip-rule="nonzero"/></clipPath><clipPath id="9ba896dd91"><path d="M 19.757812 208.445312 L 355 208.445312 L 355 325.445312 L 19.757812 325.445312 Z M 19.757812 208.445312 " clip-rule="nonzero"/></clipPath></defs><g clip-path="url(#a1ec3af146)"><g clip-path="url(#16e0449964)"><path fill="#000000" d="M 70.890625 44.621094 L 148.234375 44.621094 L 148.234375 144.816406 L 70.890625 144.816406 Z M 70.890625 44.621094 " fill-opacity="1" fill-rule="nonzero"/></g></g><g clip-path="url(#a19f0ec0c2)"><g clip-path="url(#500a5b42c2)"><path fill="#ffffff" d="M 103.238281 52.425781 L 131.796875 52.425781 L 131.796875 89.421875 L 103.238281 89.421875 Z M 103.238281 52.425781 " fill-opacity="1" fill-rule="nonzero"/></g></g><g clip-path="url(#6a57995154)"><g clip-path="url(#ccd30fa236)"><path fill="#000000" d="M 226.496094 44.621094 L 303.839844 44.621094 L 303.839844 144.816406 L 226.496094 144.816406 Z M 226.496094 44.621094 " fill-opacity="1" fill-rule="nonzero"/></g></g><g clip-path="url(#eedacc7666)"><g clip-path="url(#fa2412ab00)"><path fill="#ffffff" d="M 258.261719 52.425781 L 286.820312 52.425781 L 286.820312 89.421875 L 258.261719 89.421875 Z M 258.261719 52.425781 " fill-opacity="1" fill-rule="nonzero"/></g></g><g clip-path="url(#9ba896dd91)"><path fill="#000000" d="M 347.476562 245.972656 C 347.332031 245.296875 347.195312 244.632812 347.011719 243.976562 L 346.4375 242.054688 C 346.132812 240.789062 345.5625 239.597656 345.171875 238.417969 C 344.148438 236.105469 343.066406 233.941406 341.761719 231.9375 C 340.402344 229.96875 339 228.078125 337.335938 226.402344 C 334.046875 223.046875 330.183594 220.261719 325.597656 218.214844 L 324.738281 217.804688 L 323.851562 217.46875 C 323.25 217.25 322.648438 216.996094 322.03125 216.773438 C 320.785156 216.433594 319.5 215.929688 318.15625 215.632812 C 316.8125 215.289062 315.425781 215.023438 313.96875 214.78125 C 312.515625 214.546875 311.007812 214.375 309.390625 214.183594 C 311.726562 211.929688 314.699219 210.414062 317.871094 209.460938 C 319.464844 208.976562 321.109375 208.773438 322.796875 208.550781 C 323.640625 208.449219 324.484375 208.488281 325.335938 208.472656 L 326.621094 208.46875 C 327.050781 208.488281 327.46875 208.550781 327.898438 208.589844 C 334.761719 209.226562 341.445312 212.585938 346.339844 217.660156 C 348.816406 220.183594 350.757812 223.1875 352.25 226.359375 C 353.695312 229.566406 354.515625 233.007812 354.804688 236.433594 C 354.839844 237.292969 354.820312 238.160156 354.816406 239.007812 C 354.804688 239.4375 354.820312 239.855469 354.785156 240.28125 C 354.746094 240.703125 354.679688 241.128906 354.625 241.546875 C 354.5 242.390625 354.421875 243.21875 354.242188 244.035156 C 354.054688 244.855469 353.847656 245.660156 353.589844 246.453125 C 352.539062 249.605469 350.941406 252.527344 348.625 254.800781 C 348.386719 251.570312 348.070312 248.691406 347.476562 245.972656 Z M 27.320312 245.972656 C 27.464844 245.296875 27.605469 244.632812 27.785156 243.976562 L 28.359375 242.054688 C 28.667969 240.789062 29.238281 239.597656 29.625 238.417969 C 30.652344 236.105469 31.734375 233.941406 33.039062 231.9375 C 34.398438 229.96875 35.800781 228.078125 37.460938 226.402344 C 40.753906 223.046875 44.617188 220.261719 49.199219 218.214844 L 50.058594 217.804688 L 50.949219 217.46875 C 51.546875 217.25 52.152344 216.996094 52.769531 216.773438 C 54.015625 216.433594 55.300781 215.929688 56.644531 215.632812 C 57.984375 215.289062 59.375 215.023438 60.832031 214.78125 C 62.285156 214.546875 63.792969 214.375 65.410156 214.183594 C 63.070312 211.929688 60.101562 210.414062 56.925781 209.460938 C 55.335938 208.976562 53.6875 208.773438 52 208.550781 C 51.160156 208.449219 50.316406 208.488281 49.464844 208.472656 L 48.175781 208.46875 C 47.75 208.488281 47.328125 208.550781 46.902344 208.589844 C 40.035156 209.226562 33.351562 212.585938 28.460938 217.660156 C 25.984375 220.183594 24.042969 223.1875 22.546875 226.359375 C 21.101562 229.566406 20.28125 233.007812 19.996094 236.433594 C 19.960938 237.292969 19.980469 238.160156 19.984375 239.007812 C 19.996094 239.4375 19.980469 239.855469 20.015625 240.28125 C 20.050781 240.703125 20.121094 241.128906 20.171875 241.546875 C 20.300781 242.390625 20.378906 243.21875 20.558594 244.035156 C 20.746094 244.855469 20.953125 245.660156 21.210938 246.453125 C 22.257812 249.605469 23.859375 252.527344 26.171875 254.800781 C 26.414062 251.570312 26.726562 248.691406 27.320312 245.972656 Z M 330.117188 223.636719 C 329.105469 225.046875 328.078125 226.453125 327.027344 227.84375 L 325.453125 229.941406 L 324.664062 230.996094 L 323.832031 232.003906 L 320.425781 236 L 318.703125 237.992188 L 316.886719 239.886719 C 314.46875 242.425781 312.019531 244.96875 309.398438 247.3125 L 305.492188 250.886719 C 304.152344 252.027344 302.78125 253.132812 301.421875 254.265625 C 297.882812 257.15625 282.859375 273.6875 281.941406 274.792969 C 281.050781 275.929688 280.128906 277.039062 279.222656 278.167969 C 278.308594 279.292969 277.394531 280.421875 276.410156 281.480469 C 268.726562 290.171875 259.835938 297.917969 250.011719 304.4375 C 248.777344 305.246094 247.558594 306.078125 246.300781 306.855469 L 242.472656 309.085938 C 239.9375 310.621094 237.253906 311.886719 234.589844 313.210938 C 229.269531 315.855469 223.667969 317.945312 217.988281 319.828125 C 216.589844 320.351562 215.117188 320.671875 213.679688 321.074219 L 209.332031 322.226562 C 206.410156 322.84375 203.480469 323.441406 200.535156 323.976562 C 200.507812 323.984375 200.480469 323.988281 200.453125 323.992188 L 196.015625 324.546875 C 194.519531 324.707031 193.03125 324.972656 191.527344 325.019531 L 187.011719 325.28125 L 184.753906 325.410156 C 184.003906 325.445312 183.246094 325.417969 182.492188 325.410156 L 177.96875 325.324219 C 177.21875 325.296875 176.460938 325.3125 175.710938 325.253906 L 173.453125 325.0625 C 170.453125 324.785156 167.433594 324.625 164.46875 324.050781 L 160.011719 323.304688 C 158.527344 323.0625 157.074219 322.648438 155.605469 322.320312 L 151.21875 321.273438 C 149.765625 320.894531 148.351562 320.378906 146.917969 319.933594 L 142.640625 318.542969 C 141.238281 318.019531 139.855469 317.445312 138.464844 316.894531 C 137.074219 316.34375 135.6875 315.789062 134.3125 315.210938 C 132.960938 314.570312 131.628906 313.898438 130.292969 313.242188 L 126.296875 311.261719 C 124.988281 310.554688 123.710938 309.796875 122.433594 309.042969 L 118.617188 306.765625 C 117.347656 306.011719 116.167969 305.121094 114.9375 304.304688 C 112.507812 302.632812 110.0625 300.992188 107.8125 299.101562 L 104.382812 296.347656 L 102.683594 294.964844 C 102.132812 294.488281 101.605469 293.976562 101.066406 293.480469 C 98.941406 291.476562 96.761719 289.550781 94.710938 287.492188 L 88.792969 281.128906 L 88.089844 280.351562 C 88.074219 280.335938 88.058594 280.320312 88.042969 280.300781 L 87.378906 279.488281 L 86.015625 277.804688 C 85.105469 276.683594 67.210938 256.644531 63.773438 253.800781 L 61.726562 252.132812 L 60.707031 251.296875 L 59.726562 250.410156 L 55.832031 246.847656 L 51.980469 243.273438 C 50.714844 242.058594 49.539062 240.75 48.320312 239.492188 L 44.71875 235.679688 L 42.9375 233.765625 L 41.25 231.757812 C 41.21875 231.71875 41.1875 231.683594 41.15625 231.644531 C 40.164062 230.421875 41.714844 228.78125 42.988281 229.710938 C 43.015625 229.730469 43.042969 229.753906 43.070312 229.769531 L 45.136719 231.316406 L 47.277344 232.769531 L 51.519531 235.683594 C 52.9375 236.648438 54.320312 237.644531 55.746094 238.585938 L 60.085938 241.304688 L 64.386719 244.039062 L 65.425781 244.703125 C 65.445312 244.714844 65.46875 244.726562 65.488281 244.742188 L 66.566406 245.347656 L 68.78125 246.601562 C 80.472656 253.429688 92.519531 259.402344 104.996094 264.066406 C 129.875 273.519531 156.128906 278.320312 182.4375 278.214844 C 208.734375 278.101562 235.074219 273.332031 260.050781 264.058594 C 285.078125 254.835938 308.644531 241.277344 330.117188 223.636719 " fill-opacity="1" fill-rule="nonzero"/></g></svg>